<svg height='100px' width='100px'  fill="#2b50aa" xmlns:dc="http://purl.org/dc/elements/1.1/" xmlns:cc="http://creativecommons.org/ns#" xmlns:rdf="http://www.w3.org/1999/02/22-rdf-syntax-ns#" xmlns:svg="http://www.w3.org/2000/svg" xmlns="http://www.w3.org/2000/svg" xmlns:sodipodi="http://sodipodi.sourceforge.net/DTD/sodipodi-0.dtd" xmlns:inkscape="http://www.inkscape.org/namespaces/inkscape" viewBox="0 0 26.458333 26.458334" version="1.1" x="0px" y="0px"><g transform="translate(0,-11.249983)"><path style="color:#000000;font-variant-ligatures:normal;font-variant-position:normal;font-variant-caps:normal;font-variant-numeric:normal;font-variant-alternates:normal;font-variant-east-asian:normal;font-feature-settings:normal;font-variation-settings:normal;text-indent:0;text-decoration-line:none;text-decoration-style:solid;text-decoration-color:#000000;text-transform:none;direction:ltr;text-orientation:mixed;dominant-baseline:auto;baseline-shift:baseline;white-space:normal;shape-padding:0;shape-margin:0;inline-size:0;isolation:auto;mix-blend-mode:normal;color-interpolation:sRGB;color-interpolation-filters:linearRGB;solid-color:#000000;solid-opacity:1;vector-effect:none;paint-order:normal;color-rendering:auto;image-rendering:auto;shape-rendering:auto;enable-background:accumulate;" d="m 6.5369368,18.902047 a 1.1154385,1.1154749 0 0 0 -1.11571,1.115749 1.1154385,1.1154749 0 0 0 1.11571,1.114657 H 19.922487 a 1.1154385,1.1154749 0 0 0 1.11462,-1.114657 1.1154385,1.1154749 0 0 0 -1.11462,-1.115749 z m 0,4.461902 a 1.1154385,1.1154749 0 0 0 -1.11571,1.115747 1.1154385,1.1154749 0 0 0 1.11571,1.114654 H 19.922487 a 1.1154385,1.1154749 0 0 0 1.11462,-1.114654 1.1154385,1.1154749 0 0 0 -1.11462,-1.115747 z m 0,4.461904 a 1.1154385,1.1154749 0 0 0 -1.11571,1.11466 1.1154385,1.1154749 0 0 0 1.11571,1.11574 H 19.922487 a 1.1154385,1.1154749 0 0 0 1.11462,-1.11574 1.1154385,1.1154749 0 0 0 -1.11462,-1.11466 z" clip-rule="nonzero" display="inline" overflow="visible" visibility="visible" fill="#2b50aa" fill-opacity="1" fill-rule="nonzero" stroke="none" stop-color="#000000"></path></g></svg>