<?xml version="1.0" encoding="UTF-8"?>
<svg width="1200pt" height="1200pt" version="1.1" viewBox="0 0 1200 1200" xmlns="http://www.w3.org/2000/svg">
 <g fill="#2a4faa">
  <path d="m600 156c117.76 0 230.69 46.777 313.96 130.04 83.266 83.27 130.04 196.2 130.04 313.96s-46.777 230.69-130.04 313.96c-83.27 83.266-196.2 130.04-313.96 130.04s-230.69-46.777-313.96-130.04c-83.266-83.27-130.04-196.2-130.04-313.96s46.777-230.69 130.04-313.96c83.27-83.266 196.2-130.04 313.96-130.04m0-96c-143.22 0-280.57 56.895-381.84 158.16-101.27 101.27-158.16 238.62-158.16 381.84s56.895 280.57 158.16 381.84c101.27 101.27 238.62 158.16 381.84 158.16s280.57-56.895 381.84-158.16c101.27-101.27 158.16-238.62 158.16-381.84 0-94.789-24.953-187.91-72.348-270-47.395-82.09-115.56-150.26-197.65-197.65-82.09-47.395-175.21-72.348-270-72.348z"/>
  <path d="m661.68 878.04h-123.36v-216h-216v-123.36h216v-216h123.36v216h215.88v123.36h-215.88z"/>
 </g>
</svg>
