<?xml version="1.0" encoding="UTF-8"?>
<svg width="512pt" height="512pt" version="1.1" viewBox="0 0 512 512" xmlns="http://www.w3.org/2000/svg">
 <path d="m202.93 147.55c8.1758-4.1133 14.305-11.406 16.93-20.176 2.6406-8.7695 1.5352-18.238-3.0391-26.176l-30.734-53.215c-8.832-15.281-28.367-20.527-43.648-11.695-9.9688 5.7617-22.625 13.055-35.902 20.719-23.215 13.406-40.145 35.488-47.09 61.375-6.9297 25.887-3.2969 53.473 10.098 76.688 40.129 69.488 97.777 169.34 137.9 238.85 13.406 23.215 35.473 40.145 61.359 47.09 25.887 6.9297 53.473 3.2969 76.688-10.098 13.281-7.6641 25.938-14.977 35.902-20.734 15.281-8.8164 20.527-28.352 11.695-43.633l-30.734-53.23c-4.5742-7.9375-12.223-13.633-21.121-15.727-8.9102-2.1133-18.305-0.46484-25.953 4.5742l-23.344 15.375c-4.5938 3.0234-10.223 4.0156-15.566 2.7539-5.3438-1.2656-9.9375-4.6719-12.688-9.4414-23.793-41.215-70.289-121.73-94.078-162.96-2.7539-4.7539-3.4258-10.434-1.8398-15.695 1.5859-5.2656 5.2461-9.6484 10.16-12.113l25.008-12.527zm104.24-85.902c38.91 23.711 72.594 57.246 96.992 99.488 24.367 42.223 36.559 88.145 37.648 133.68 0.11328 4.4141 3.7773 7.9219 8.1914 7.8086 4.4141-0.097656 7.9023-3.7773 7.8086-8.1914-1.1523-48.129-14.031-96.672-39.793-141.3-25.793-44.656-61.391-80.078-102.51-105.15-3.7773-2.2891-8.7031-1.0898-11.008 2.6719-2.2891 3.7773-1.0898 8.7031 2.6719 10.992zm-21.297 57.664c26.734 17.727 49.887 41.762 67.008 71.426 17.121 29.648 26.352 61.68 28.352 93.695 0.27344 4.3984 4.0781 7.7617 8.4805 7.4883 4.4141-0.27344 7.7617-4.0781 7.4883-8.4805-2.1445-34.398-12.062-68.848-30.465-100.7-18.398-31.871-43.281-57.695-72.016-76.754-3.6797-2.4492-8.6406-1.4414-11.09 2.2383-2.4336 3.6797-1.4414 8.6406 2.2383 11.09zm-23.648 58.512c14.574 11.855 27.281 26.512 37.23 43.762 9.9375 17.23 16.289 35.535 19.281 54.062 0.6875 4.3672 4.8008 7.3438 9.168 6.6406 4.3516-0.70312 7.3281-4.8164 6.625-9.168-3.2812-20.398-10.273-40.574-21.215-59.535-10.961-18.977-24.945-35.121-40.992-48.176-3.4258-2.7852-8.4648-2.2578-11.246 1.168-2.7852 3.4258-2.2734 8.4648 1.1523 11.246z" fill="#00449e" fill-rule="evenodd"/>
</svg>
