<?xml version="1.0" encoding="UTF-8"?>
<svg width="1200pt" height="1200pt" version="1.1" viewBox="0 0 1200 1200" xmlns="http://www.w3.org/2000/svg">
 <g fill="#2a4faa">
  <path d="m980.35 937.3c0 44.051-35.801 81.199-79.852 81.199h-638.95c-44.051 0-79.852-37.148-79.852-81.199v-638.95c0-44.051 35.801-78.551 79.852-78.551h372.7v-53.199h-372.7c-73.398 0-133.1 58.398-133.1 131.8v638.9c0 73.398 59.699 134.4 133.1 134.4h638.9c73.398 0 133.1-61.051 133.1-134.4v-371.4h-53.25v371.4z"/>
  <path d="m1040.4 158.5c-40.199-40.25-110.35-40.25-150.6 0l-357.15 357.15c-3.3984 3.3984-5.8516 7.6992-7 12.352l-37.602 150.55c-2.25 9.0508 0.39844 18.648 7 25.301 5.0508 5.0508 11.852 7.8008 18.801 7.8008 2.1484 0 4.3008-0.25 6.4492-0.80078l150.6-37.648c4.6992-1.1484 8.9492-3.6016 12.352-7l357.15-357.15c20.102-20.102 31.199-46.852 31.199-75.301 0-28.453-11.051-55.152-31.199-75.254zm-389.55 464.85-100.4 25.102 25.102-100.4 295.45-295.45 75.301 75.301zm351.9-351.95-18.801 18.801-75.301-75.301 18.801-18.801c20.102-20.102 55.199-20.102 75.301 0 10.051 10.051 15.602 23.398 15.602 37.648 0 14.254-5.5508 27.605-15.602 37.652z"/>
 </g>
</svg>
