<?xml version="1.0" encoding="UTF-8"?>
<svg width="100pt" height="100pt" version="1.1" viewBox="0 0 100 100" xmlns="http://www.w3.org/2000/svg">
 <path d="m89 62.801c1.5-2 2.3984-4.3984 2.3984-7.1016 0-5.3008-3.5-9.8008-8.3984-11.199-1.1016-4.3984-4.1016-8.1016-8-10.301 1.5-2 2.3984-4.3984 2.3984-7 0-6.5-5.3008-11.699-11.699-11.699-6.5 0-11.699 5.3008-11.699 11.699 0 2.6992 0.89844 5.1016 2.3984 7.1016-2.6992 1.5-4.8984 3.6016-6.3984 6.3008-1.5-2.6016-3.6992-4.8008-6.3984-6.3008 1.5-2 2.3984-4.3984 2.3984-7.1016 0-6.5-5.3008-11.699-11.699-11.699-6.5 0-11.699 5.3008-11.699 11.699 0 2.6016 0.89844 5.1016 2.3984 7.1016-3.8984 2.1016-6.8008 5.8008-8 10.199-4.8008 1.3984-8.3984 5.8984-8.3984 11.199 0 2.6992 0.89844 5.1016 2.3984 7.1016-5 2.8008-8.5 8.1992-8.5 14.301v5.1992c0 1.1992 1 2.1016 2.1016 2.1016h90.699c1.1992 0 2.1016-1 2.1016-2.1016v-5.1992c0.097656-6.1016-3.4023-11.5-8.4023-14.301zm-9.3008-14.5c4.1016 0 7.3984 3.3008 7.3984 7.3984 0 4.1016-3.3008 7.3984-7.3984 7.3984-4.1016 0-7.3984-3.3008-7.3984-7.3984 0-4.0977 3.3008-7.3984 7.3984-7.3984zm-14-28.5c4.1016 0 7.3984 3.3008 7.3984 7.3984 0 4.1016-3.3008 7.3984-7.3984 7.3984-4.1016 0-7.3984-3.3008-7.3984-7.3984 0-4.0977 3.3008-7.3984 7.3984-7.3984zm-15.699 28.5c4.1016 0 7.3984 3.3008 7.3984 7.3984 0 4.1016-3.3008 7.3984-7.3984 7.3984-4.1016 0-7.3984-3.3008-7.3984-7.3984 0-4.0977 3.2969-7.3984 7.3984-7.3984zm-15.699-28.5c4.1016 0 7.3984 3.3008 7.3984 7.3984 0 4.1016-3.3008 7.3984-7.3984 7.3984-4.1016 0-7.3984-3.3008-7.3984-7.3984-0.003906-4.0977 3.2969-7.3984 7.3984-7.3984zm-14 28.5c4.1016 0 7.3984 3.3008 7.3984 7.3984 0 4.1016-3.3008 7.3984-7.3984 7.3984-4.1016 0-7.3984-3.3008-7.3984-7.3984-0.003906-4.0977 3.3984-7.3984 7.3984-7.3984zm11.898 28.801v3h-25.398v-3c0-5.1016 3.1992-9.5 7.6992-11.301 1.6992 1 3.6992 1.6016 5.8008 1.6016 2.1016 0 4.1016-0.60156 5.8008-1.6016 3 1.1992 5.3984 3.5 6.6992 6.5-0.40234 1.5977-0.60156 3.1992-0.60156 4.8008zm3-9.4023c-1.3984-2-3.3008-3.6992-5.5-4.8984 1.5-2 2.3984-4.3984 2.3984-7.1016 0-6-4.6016-11-10.398-11.602 1.1992-3.1016 3.6992-5.5 6.8008-6.6992 1.6992 1 3.6992 1.6016 5.8008 1.6016 2.1016 0 4.1016-0.60156 5.8008-1.6016 3.1992 1.1992 5.8008 3.8008 7 7-5 1.3008-8.8008 5.8984-8.8008 11.301 0 2.6992 0.89844 5.1016 2.3984 7.1016-2.1992 1.1992-4.0977 2.8984-5.5 4.8984zm28.402 12.5h-27.203v-3.1016c0-5.1016 3.1992-9.5 7.6992-11.301 1.6992 1 3.6992 1.6016 5.8008 1.6016 2.1016 0 4.1016-0.60156 5.8008-1.6016 4.5 1.8008 7.6992 6.1016 7.6992 11.301v3.1016zm1.1992-12.5c-1.3984-2-3.3008-3.6992-5.5-4.8984 1.5-2 2.3984-4.3984 2.3984-7.1016 0-5.3984-3.6992-10-8.8008-11.301 1.1992-3.1992 3.6992-5.8008 7-7 1.6992 1 3.6992 1.6016 5.8008 1.6016 2.1016 0 4.1016-0.60156 5.8008-1.6016 3.1016 1.1992 5.6016 3.6992 6.8008 6.6992-5.8008 0.70312-10.301 5.6016-10.301 11.602 0 2.6992 0.89844 5.1016 2.3984 7.1016-2.1992 1.1992-4.0977 2.8984-5.5977 4.8984zm28.398 12.5h-25.398v-3c0-1.6992-0.30078-3.3008-0.69922-4.8008 1.3008-3 3.6992-5.3008 6.6992-6.5 1.6992 1 3.6992 1.6016 5.8008 1.6016 2.1016 0 4.1016-0.60156 5.8008-1.6016 4.5 1.8008 7.6992 6.1016 7.6992 11.301v3z"/>
</svg>
