<?xml version="1.0" encoding="UTF-8"?>
<svg width="100pt" height="100pt" version="1.1" viewBox="0 0 100 100" xmlns="http://www.w3.org/2000/svg">
 <g>
  <path d="m50 6.1445c-18.402 0-34.375 12.707-34.375 32.984s34.375 54.617 34.375 54.617 34.375-34.305 34.375-54.617c0-20.309-15.973-32.984-34.375-32.984zm-28.266 33.508c0-16.668 13.125-27.117 28.266-27.117s28.266 10.418 28.266 27.117c0 16.703-28.266 44.93-28.266 44.93s-28.266-28.262-28.266-44.93z"/>
  <path d="m62.43 37.5c0 6.8633-5.5664 12.43-12.43 12.43s-12.43-5.5664-12.43-12.43 5.5664-12.43 12.43-12.43 12.43 5.5664 12.43 12.43"/>
 </g>
</svg>
