<?xml version="1.0" encoding="UTF-8"?>
<svg width="512pt" height="512pt" version="1.1" viewBox="0 0 512 512" xmlns="http://www.w3.org/2000/svg">
 <path d="m133.47 168.94c-10.605 0-19.348 8.7422-19.348 19.348v135.43c0 10.605 8.7422 19.348 19.348 19.348h245.05c10.605 0 19.348-8.7422 19.348-19.348v-135.43c0-10.605-8.7422-19.348-19.348-19.348zm3.9297 12.898h237.19l-112.65 97.84c-2.875 2.4961-9.0156 2.4961-11.891 0zm-10.379 8.0625 79.398 69.023-79.398 63.582zm257.95 0v132.6l-79.402-63.582zm-168.68 77.586 25.293 21.965c8.2227 7.1406 20.598 7.1406 28.816 0l25.293-21.965 78.191 62.676h-235.78l78.191-62.676z" fill="#00449e"/>
</svg>
