<?xml version="1.0" encoding="UTF-8"?>
<svg width="1200pt" height="1200pt" version="1.1" viewBox="0 0 1200 1200" xmlns="http://www.w3.org/2000/svg">
 <g fill="#2a4faa">
  <path d="m1055.1 933.78h-242.67v-129.25l-424.88 0.003906v129.25l-242.67-0.003906c-50.367 0-91.34-40.969-91.34-91.34l0.003906-378.43c0-50.367 40.969-91.34 91.34-91.34h910.21c50.367 0 91.359 40.969 91.359 91.34v378.43c0 50.371-40.992 91.34-91.359 91.34zm-196.52-46.152h196.52c24.926 0 45.207-20.262 45.207-45.184v-378.43c0-24.926-20.281-45.184-45.207-45.184h-910.21c-24.926 0-45.184 20.262-45.184 45.184v378.43c0 24.926 20.262 45.184 45.184 45.184h196.52v-129.25h517.18z"/>
  <path d="m904.64 804.43h-609.26c-12.754 0-23.078-10.32-23.078-23.078 0-12.754 10.32-23.078 23.078-23.078h609.26c12.754 0 23.078 10.32 23.078 23.078 0 12.754-10.32 23.078-23.078 23.078z"/>
  <path d="m835.5 1153.8h-471.02c-12.754 0-23.078-10.32-23.078-23.078v-349.31c0-12.754 10.32-23.078 23.078-23.078h471.03c12.754 0 23.078 10.32 23.078 23.078l-0.003906 349.31c0 12.754-10.32 23.078-23.078 23.078zm-447.95-46.156h424.87l0.003906-303.15h-424.88z"/>
  <path d="m835.5 418.83h-471.02c-12.754 0-23.078-10.32-23.078-23.078v-326.52c0-12.754 10.32-23.078 23.078-23.078h471.03c12.754 0 23.078 10.32 23.078 23.078v326.52c-0.003906 12.758-10.324 23.078-23.082 23.078zm-447.95-46.152h424.87l0.003906-280.37h-424.88z"/>
  <path d="m736.52 1036.1h-273.07c-12.754 0-23.078-10.32-23.078-23.078 0-12.754 10.32-23.078 23.078-23.078h273.07c12.754 0 23.078 10.32 23.078 23.078 0 12.754-10.324 23.078-23.078 23.078z"/>
  <path d="m736.52 922.31h-273.07c-12.754 0-23.078-10.32-23.078-23.078 0-12.754 10.32-23.078 23.078-23.078h273.07c12.754 0 23.078 10.32 23.078 23.078 0 12.754-10.324 23.078-23.078 23.078z"/>
  <path d="m736.52 312.46h-273.07c-12.754 0-23.078-10.32-23.078-23.078 0-12.754 10.32-23.078 23.078-23.078h273.07c12.754 0 23.078 10.32 23.078 23.078 0 12.758-10.324 23.078-23.078 23.078z"/>
  <path d="m736.52 198.68h-273.07c-12.754 0-23.078-10.32-23.078-23.078 0-12.754 10.32-23.078 23.078-23.078h273.07c12.754 0 23.078 10.32 23.078 23.078 0 12.754-10.324 23.078-23.078 23.078z"/>
  <path d="m364.48 418.83h-124.69c-12.754 0-23.078-10.32-23.078-23.078v-126.29c0-37.816 30.762-68.578 68.578-68.578h79.191c12.754 0 23.078 10.32 23.078 23.078v171.79c-0.003907 12.758-10.324 23.078-23.078 23.078zm-101.62-46.152h78.539v-125.64h-56.113c-12.371 0-22.422 10.051-22.422 22.422z"/>
  <path d="m960.21 418.83h-124.71c-12.754 0-23.078-10.32-23.078-23.078l0.003906-171.79c0-12.754 10.32-23.078 23.078-23.078h79.191c37.816 0 68.602 30.762 68.602 68.578v126.29c-0.003906 12.754-10.324 23.074-23.082 23.074zm-101.64-46.152h78.562v-103.21c0-12.371-10.074-22.422-22.445-22.422h-56.113z"/>
  <path d="m236.79 565.27h-46.152c-12.754 0-23.078-10.32-23.078-23.078 0-12.754 10.32-23.078 23.078-23.078h46.152c12.754 0 23.078 10.32 23.078 23.078 0 12.754-10.32 23.078-23.078 23.078z"/>
  <path d="m375.25 565.27h-46.152c-12.754 0-23.078-10.32-23.078-23.078 0-12.754 10.32-23.078 23.078-23.078h46.152c12.754 0 23.078 10.32 23.078 23.078 0 12.754-10.32 23.078-23.078 23.078z"/>
 </g>
</svg>
