<?xml version="1.0" encoding="UTF-8"?>
<svg width="512pt" height="512pt" version="1.1" viewBox="0 0 512 512" xmlns="http://www.w3.org/2000/svg">
 <g fill="#00449e">
  <path d="m353.28 228.12h16.496v154.17h-190.01v-154.17h142.79m-84.195 47.785-8.5312 14.223 26.168 14.793-26.168 14.793 8.5352 14.223 25.602-14.793v30.152h16.496v-30.152l26.168 14.793 8.5352-14.223-26.168-14.793 26.168-14.793-8.5352-14.223-25.602 14.793v-30.152h-16.496v30.152z"/>
  <path d="m353.28 258.28h-30.152v-50.062c0-26.738-21.617-47.785-48.355-47.785-26.738 0-48.355 21.617-48.355 47.785v50.062h-30.152v-50.062c0-43.234 35.27-78.508 78.508-78.508 43.234 0 78.508 35.27 78.508 78.508z"/>
  <path d="m253.72 37.547 1.707 16.496c63.148-6.2578 124.02 16.496 167.25 62.578 36.977 39.254 56.891 91.023 55.184 145.07-1.707 54.043-23.895 104.68-63.715 141.65-39.254 36.977-91.023 56.891-145.07 55.184-54.043-1.707-104.68-23.895-141.65-63.715-36.977-39.254-56.891-91.023-55.184-145.07 1.1367-48.926 19.91-94.438 52.336-129.71l25.031 94.438 15.93-3.9805-31.289-117.19-116.62 31.285 3.9805 15.93 82.488-21.617c-29.582 36.977-46.648 82.488-48.355 130.84-1.707 58.594 19.914 114.35 59.734 156.45 40.391 42.668 94.438 67.129 153.03 68.836 58.594 1.707 114.35-19.344 157.01-59.734 42.668-40.391 67.129-94.438 68.836-153.03s-19.344-114.35-59.734-157.01c-46.648-49.496-112.64-73.957-180.91-67.699z"/>
 </g>
</svg>
