<?xml version="1.0" encoding="UTF-8"?>
<svg width="1200pt" height="1200pt" version="1.1" viewBox="0 0 1200 1200" xmlns="http://www.w3.org/2000/svg">
 <g fill="#2a4faa">
  <path d="m599.87 111.46c-273.96 0-496.85 222.9-496.85 496.87s222.89 496.86 496.85 496.86c273.97 0 496.85-222.89 496.85-496.86 0.011718-273.97-222.88-496.87-496.85-496.87zm0 933.73c-240.88 0-436.85-195.97-436.85-436.86s195.97-436.87 436.85-436.87 436.86 195.98 436.86 436.87-195.98 436.86-436.86 436.86z"/>
  <path d="m763.11 445.13c-11.723-11.711-30.73-11.711-42.422 0.011719l-120.8 120.85-120.79-120.85c-11.723-11.734-30.719-11.723-42.422-0.011719-11.723 11.711-11.723 30.707-0.011719 42.422l120.82 120.88-120.82 120.86c-11.711 11.711-11.711 30.719 0.011719 42.422 5.8555 5.8555 13.523 8.7734 21.203 8.7734 7.6797 0 15.359-2.9297 21.215-8.7852l120.79-120.84 120.79 120.84c5.8555 5.8555 13.523 8.7852 21.215 8.7852 7.6797 0 15.348-2.9297 21.215-8.7734 11.723-11.711 11.723-30.719 0-42.422l-120.81-120.86 120.8-120.88c11.723-11.715 11.723-30.711 0.011719-42.422z"/>
 </g>
</svg>
