<svg width="98" height="86" viewBox="0 0 98 86" fill="none" xmlns="http://www.w3.org/2000/svg">
<path d="M75.8276 61.6646C77.956 63.7732 77.956 67.1838 75.8276 69.2924C73.6992 71.4011 70.25 71.4011 68.1216 69.2924" stroke="#00747E" stroke-width="3" stroke-linecap="round" stroke-linejoin="round"/>
<path d="M67.3903 38.0513L86.3396 56.8176C88.4642 58.9223 88.468 62.3368 86.3396 64.4454C84.2111 66.5541 80.762 66.5502 78.6336 64.4454L64.1709 50.123" stroke="#00747E" stroke-width="3" stroke-linecap="round" stroke-linejoin="round"/>
<path d="M59.4623 60.708L66.7549 67.9288C68.8795 70.0335 68.8795 73.448 66.7549 75.5567C64.6265 77.6653 61.1773 77.6653 59.0527 75.5567" stroke="#00747E" stroke-width="3" stroke-linecap="round" stroke-linejoin="round"/>
<path d="M11.4385 32.3936C15.1671 36.0846 14.3823 37.4519 16.0782 44.3193C16.7902 47.2038 18.2793 50.0614 20.5686 52.6424" stroke="#00747E" stroke-width="3" stroke-linecap="round" stroke-linejoin="round"/>
<path d="M49.9113 20.5982C47.2278 18.8046 44.3184 18.0978 39.1696 16.8496C35.8391 16.043 34.0437 15.7127 31.1611 12.8628" stroke="#00747E" stroke-width="3" stroke-linecap="round" stroke-linejoin="round"/>
<path d="M83.9624 54.459C86.0602 52.385 86.4315 50.5606 86.6842 47.8221C87.2087 42.1184 87.4307 39.7525 90.1448 37.0639L96.0861 31.1836" stroke="#00747E" stroke-width="3" stroke-linecap="round" stroke-linejoin="round"/>
<path d="M27.0534 1.92041L34.6063 9.3985L7.7175 36.0769L1.91406 30.3272" stroke="#00747E" stroke-width="3" stroke-linecap="round" stroke-linejoin="round"/>
<path d="M22.8733 50.4453L19.627 53.6601C17.6211 55.6496 17.6211 58.9028 19.627 60.8885C21.6368 62.8781 24.9213 62.8781 26.9272 60.8885L30.1735 57.6737C32.1794 55.6842 32.1794 52.431 30.1735 50.4453C28.1637 48.4557 24.8792 48.4557 22.8733 50.4453V50.4453Z" stroke="#00747E" stroke-width="3" stroke-linecap="round" stroke-linejoin="round"/>
<path d="M44.7853 72.146L41.5391 75.3607C39.5293 77.3503 39.5293 80.6035 41.5391 82.5892C43.545 84.5787 46.8334 84.5787 48.8393 82.5892L52.0855 79.3744C54.0953 77.3849 54.0953 74.1317 52.0855 72.146C50.0796 70.1564 46.7912 70.1564 44.7853 72.146V72.146Z" stroke="#00747E" stroke-width="3" stroke-linecap="round" stroke-linejoin="round"/>
<path d="M33.1628 54.7124L26.9268 60.8884C24.9209 62.878 24.9209 66.1312 26.9268 68.1169C28.9366 70.1064 32.2211 70.1064 34.2271 68.1169L40.4631 61.9408C42.469 59.9513 42.469 56.6981 40.4631 54.7124C38.4533 52.7228 35.1688 52.7228 33.1628 54.7124Z" stroke="#00747E" stroke-width="3" stroke-linecap="round" stroke-linejoin="round"/>
<path d="M72.5006 29.2865C64.0673 37.6364 56.9317 27.8692 50.9521 33.7918L46.1899 38.5083C44.184 40.4979 40.8956 40.4979 38.8897 38.5083C36.8838 36.5188 36.8838 33.2656 38.8897 31.2799L52.0967 18.4861C54.1946 16.412 56.79 15.2905 59.5578 15.0409C65.3191 14.5185 67.7078 14.2996 70.422 11.6148L73.3696 8.6958" stroke="#00747E" stroke-width="3" stroke-linecap="round" stroke-linejoin="round"/>
<path d="M40.4631 61.9448L34.2271 68.1209C32.2173 70.1104 32.2173 73.3636 34.2271 75.3493C36.2368 77.3388 39.5213 77.3388 41.5273 75.3493L47.7633 69.1732C49.7731 67.1837 49.7731 63.9305 47.7633 61.9448C45.7574 59.9552 42.469 59.9552 40.4631 61.9448V61.9448Z" stroke="#00747E" stroke-width="3" stroke-linecap="round" stroke-linejoin="round"/>
</svg>
